<mxfile host="app.diagrams.net" agent="Mozilla/5.0 (Windows NT 10.0; Win64; x64) AppleWebKit/537.36 (KHTML, like Gecko) Chrome/140.0.0.0 Safari/537.36" version="28.2.5">
  <diagram name="Page-1" id="Bo0nVKojK_ApYOrHX7Xx">
    <mxGraphModel dx="1048" dy="663" grid="1" gridSize="10" guides="1" tooltips="1" connect="1" arrows="1" fold="1" page="1" pageScale="1" pageWidth="850" pageHeight="1100" math="0" shadow="0">
      <root>
        <mxCell id="0" />
        <mxCell id="1" parent="0" />
        <mxCell id="7mI_IdnswRTWJlzScu2g-7" style="edgeStyle=orthogonalEdgeStyle;rounded=0;orthogonalLoop=1;jettySize=auto;html=1;exitX=0;exitY=0.5;exitDx=0;exitDy=0;" edge="1" parent="1">
          <mxGeometry relative="1" as="geometry">
            <mxPoint x="510" y="490" as="targetPoint" />
            <mxPoint x="490" y="500" as="sourcePoint" />
          </mxGeometry>
        </mxCell>
        <mxCell id="7mI_IdnswRTWJlzScu2g-27" style="edgeStyle=orthogonalEdgeStyle;rounded=0;orthogonalLoop=1;jettySize=auto;html=1;entryX=0.5;entryY=0;entryDx=0;entryDy=0;" edge="1" parent="1" source="7mI_IdnswRTWJlzScu2g-22" target="7mI_IdnswRTWJlzScu2g-24">
          <mxGeometry relative="1" as="geometry" />
        </mxCell>
        <mxCell id="7mI_IdnswRTWJlzScu2g-22" value="Admin" style="rounded=0;whiteSpace=wrap;html=1;" vertex="1" parent="1">
          <mxGeometry x="20" y="10" width="120" height="60" as="geometry" />
        </mxCell>
        <mxCell id="7mI_IdnswRTWJlzScu2g-33" style="edgeStyle=orthogonalEdgeStyle;rounded=0;orthogonalLoop=1;jettySize=auto;html=1;exitX=0.5;exitY=1;exitDx=0;exitDy=0;entryX=0.5;entryY=0;entryDx=0;entryDy=0;" edge="1" parent="1" source="7mI_IdnswRTWJlzScu2g-23" target="7mI_IdnswRTWJlzScu2g-29">
          <mxGeometry relative="1" as="geometry" />
        </mxCell>
        <mxCell id="7mI_IdnswRTWJlzScu2g-23" value="login to system" style="ellipse;whiteSpace=wrap;html=1;aspect=fixed;" vertex="1" parent="1">
          <mxGeometry x="210" width="80" height="80" as="geometry" />
        </mxCell>
        <mxCell id="7mI_IdnswRTWJlzScu2g-26" style="edgeStyle=orthogonalEdgeStyle;rounded=0;orthogonalLoop=1;jettySize=auto;html=1;exitX=0.5;exitY=1;exitDx=0;exitDy=0;entryX=0.5;entryY=0;entryDx=0;entryDy=0;" edge="1" parent="1" source="7mI_IdnswRTWJlzScu2g-24" target="7mI_IdnswRTWJlzScu2g-25">
          <mxGeometry relative="1" as="geometry" />
        </mxCell>
        <mxCell id="7mI_IdnswRTWJlzScu2g-24" value="Forgot password" style="ellipse;whiteSpace=wrap;html=1;aspect=fixed;" vertex="1" parent="1">
          <mxGeometry x="30" y="120" width="80" height="80" as="geometry" />
        </mxCell>
        <mxCell id="7mI_IdnswRTWJlzScu2g-25" value="Send Email to user" style="ellipse;whiteSpace=wrap;html=1;aspect=fixed;" vertex="1" parent="1">
          <mxGeometry x="20" y="240" width="80" height="80" as="geometry" />
        </mxCell>
        <mxCell id="7mI_IdnswRTWJlzScu2g-28" style="edgeStyle=orthogonalEdgeStyle;rounded=0;orthogonalLoop=1;jettySize=auto;html=1;exitX=1;exitY=0.5;exitDx=0;exitDy=0;entryX=-0.033;entryY=0.408;entryDx=0;entryDy=0;entryPerimeter=0;" edge="1" parent="1" source="7mI_IdnswRTWJlzScu2g-22" target="7mI_IdnswRTWJlzScu2g-23">
          <mxGeometry relative="1" as="geometry" />
        </mxCell>
        <mxCell id="7mI_IdnswRTWJlzScu2g-29" value="check credentials" style="ellipse;whiteSpace=wrap;html=1;aspect=fixed;" vertex="1" parent="1">
          <mxGeometry x="160" y="120" width="80" height="80" as="geometry" />
        </mxCell>
        <mxCell id="7mI_IdnswRTWJlzScu2g-34" style="edgeStyle=orthogonalEdgeStyle;rounded=0;orthogonalLoop=1;jettySize=auto;html=1;exitX=0.5;exitY=1;exitDx=0;exitDy=0;" edge="1" parent="1" source="7mI_IdnswRTWJlzScu2g-30" target="7mI_IdnswRTWJlzScu2g-31">
          <mxGeometry relative="1" as="geometry" />
        </mxCell>
        <mxCell id="7mI_IdnswRTWJlzScu2g-30" value="Check roles of access" style="ellipse;whiteSpace=wrap;html=1;aspect=fixed;" vertex="1" parent="1">
          <mxGeometry x="340" width="80" height="80" as="geometry" />
        </mxCell>
        <mxCell id="7mI_IdnswRTWJlzScu2g-39" style="edgeStyle=orthogonalEdgeStyle;rounded=0;orthogonalLoop=1;jettySize=auto;html=1;exitX=1;exitY=0.5;exitDx=0;exitDy=0;entryX=0;entryY=0.5;entryDx=0;entryDy=0;curved=1;" edge="1" parent="1" source="7mI_IdnswRTWJlzScu2g-31" target="7mI_IdnswRTWJlzScu2g-37">
          <mxGeometry relative="1" as="geometry">
            <mxPoint x="460" y="170" as="targetPoint" />
          </mxGeometry>
        </mxCell>
        <mxCell id="7mI_IdnswRTWJlzScu2g-51" style="edgeStyle=orthogonalEdgeStyle;rounded=0;orthogonalLoop=1;jettySize=auto;html=1;exitX=0.5;exitY=1;exitDx=0;exitDy=0;entryX=0;entryY=0.75;entryDx=0;entryDy=0;curved=1;" edge="1" parent="1" source="7mI_IdnswRTWJlzScu2g-31" target="7mI_IdnswRTWJlzScu2g-45">
          <mxGeometry relative="1" as="geometry" />
        </mxCell>
        <mxCell id="7mI_IdnswRTWJlzScu2g-59" style="edgeStyle=orthogonalEdgeStyle;rounded=0;orthogonalLoop=1;jettySize=auto;html=1;exitX=0;exitY=0.5;exitDx=0;exitDy=0;entryX=0.5;entryY=0;entryDx=0;entryDy=0;curved=1;" edge="1" parent="1" source="7mI_IdnswRTWJlzScu2g-31" target="7mI_IdnswRTWJlzScu2g-54">
          <mxGeometry relative="1" as="geometry" />
        </mxCell>
        <mxCell id="7mI_IdnswRTWJlzScu2g-62" style="edgeStyle=orthogonalEdgeStyle;rounded=0;orthogonalLoop=1;jettySize=auto;html=1;exitX=0.5;exitY=1;exitDx=0;exitDy=0;entryX=0;entryY=0.75;entryDx=0;entryDy=0;curved=1;" edge="1" parent="1" source="7mI_IdnswRTWJlzScu2g-31" target="7mI_IdnswRTWJlzScu2g-48">
          <mxGeometry relative="1" as="geometry" />
        </mxCell>
        <mxCell id="7mI_IdnswRTWJlzScu2g-63" style="edgeStyle=orthogonalEdgeStyle;rounded=0;orthogonalLoop=1;jettySize=auto;html=1;exitX=0.5;exitY=1;exitDx=0;exitDy=0;entryX=0;entryY=0.75;entryDx=0;entryDy=0;curved=1;" edge="1" parent="1" source="7mI_IdnswRTWJlzScu2g-31" target="7mI_IdnswRTWJlzScu2g-47">
          <mxGeometry relative="1" as="geometry" />
        </mxCell>
        <mxCell id="7mI_IdnswRTWJlzScu2g-64" style="edgeStyle=orthogonalEdgeStyle;rounded=0;orthogonalLoop=1;jettySize=auto;html=1;exitX=0.5;exitY=1;exitDx=0;exitDy=0;entryX=0;entryY=0.5;entryDx=0;entryDy=0;curved=1;" edge="1" parent="1" source="7mI_IdnswRTWJlzScu2g-31" target="7mI_IdnswRTWJlzScu2g-49">
          <mxGeometry relative="1" as="geometry" />
        </mxCell>
        <mxCell id="7mI_IdnswRTWJlzScu2g-65" style="edgeStyle=orthogonalEdgeStyle;rounded=0;orthogonalLoop=1;jettySize=auto;html=1;exitX=1;exitY=0.5;exitDx=0;exitDy=0;entryX=0;entryY=0.75;entryDx=0;entryDy=0;curved=1;" edge="1" parent="1" source="7mI_IdnswRTWJlzScu2g-31" target="7mI_IdnswRTWJlzScu2g-44">
          <mxGeometry relative="1" as="geometry" />
        </mxCell>
        <mxCell id="7mI_IdnswRTWJlzScu2g-66" style="edgeStyle=orthogonalEdgeStyle;rounded=0;orthogonalLoop=1;jettySize=auto;html=1;exitX=1;exitY=0.5;exitDx=0;exitDy=0;entryX=0;entryY=0.5;entryDx=0;entryDy=0;curved=1;" edge="1" parent="1" source="7mI_IdnswRTWJlzScu2g-31" target="7mI_IdnswRTWJlzScu2g-38">
          <mxGeometry relative="1" as="geometry" />
        </mxCell>
        <mxCell id="7mI_IdnswRTWJlzScu2g-67" style="edgeStyle=orthogonalEdgeStyle;rounded=0;orthogonalLoop=1;jettySize=auto;html=1;exitX=0;exitY=0.5;exitDx=0;exitDy=0;curved=1;" edge="1" parent="1" source="7mI_IdnswRTWJlzScu2g-31" target="7mI_IdnswRTWJlzScu2g-53">
          <mxGeometry relative="1" as="geometry" />
        </mxCell>
        <mxCell id="7mI_IdnswRTWJlzScu2g-68" style="edgeStyle=orthogonalEdgeStyle;rounded=0;orthogonalLoop=1;jettySize=auto;html=1;exitX=0;exitY=0.5;exitDx=0;exitDy=0;entryX=0.5;entryY=0;entryDx=0;entryDy=0;curved=1;" edge="1" parent="1" source="7mI_IdnswRTWJlzScu2g-31" target="7mI_IdnswRTWJlzScu2g-55">
          <mxGeometry relative="1" as="geometry" />
        </mxCell>
        <mxCell id="7mI_IdnswRTWJlzScu2g-31" value="manage modules" style="ellipse;whiteSpace=wrap;html=1;aspect=fixed;" vertex="1" parent="1">
          <mxGeometry x="340" y="130" width="90" height="90" as="geometry" />
        </mxCell>
        <mxCell id="7mI_IdnswRTWJlzScu2g-32" style="edgeStyle=entityRelationEdgeStyle;rounded=0;orthogonalLoop=1;jettySize=auto;html=1;exitX=1;exitY=0.5;exitDx=0;exitDy=0;entryX=0;entryY=0.608;entryDx=0;entryDy=0;entryPerimeter=0;" edge="1" parent="1" source="7mI_IdnswRTWJlzScu2g-29" target="7mI_IdnswRTWJlzScu2g-30">
          <mxGeometry relative="1" as="geometry" />
        </mxCell>
        <mxCell id="7mI_IdnswRTWJlzScu2g-37" value="manage time table details" style="rounded=0;whiteSpace=wrap;html=1;" vertex="1" parent="1">
          <mxGeometry x="530" width="120" height="50" as="geometry" />
        </mxCell>
        <mxCell id="7mI_IdnswRTWJlzScu2g-38" value="Manage attendences details" style="whiteSpace=wrap;html=1;" vertex="1" parent="1">
          <mxGeometry x="530" y="90" width="120" height="50" as="geometry" />
        </mxCell>
        <mxCell id="7mI_IdnswRTWJlzScu2g-44" value="mange std details" style="rounded=0;whiteSpace=wrap;html=1;" vertex="1" parent="1">
          <mxGeometry x="530" y="180" width="120" height="40" as="geometry" />
        </mxCell>
        <mxCell id="7mI_IdnswRTWJlzScu2g-46" value="" style="edgeStyle=orthogonalEdgeStyle;rounded=0;orthogonalLoop=1;jettySize=auto;html=1;" edge="1" parent="1" source="7mI_IdnswRTWJlzScu2g-45" target="7mI_IdnswRTWJlzScu2g-44">
          <mxGeometry relative="1" as="geometry" />
        </mxCell>
        <mxCell id="7mI_IdnswRTWJlzScu2g-45" value="manage fee details&amp;nbsp;" style="rounded=0;whiteSpace=wrap;html=1;" vertex="1" parent="1">
          <mxGeometry x="530" y="270" width="120" height="30" as="geometry" />
        </mxCell>
        <mxCell id="7mI_IdnswRTWJlzScu2g-47" value="Manage report" style="rounded=0;whiteSpace=wrap;html=1;" vertex="1" parent="1">
          <mxGeometry x="530" y="450" width="120" height="40" as="geometry" />
        </mxCell>
        <mxCell id="7mI_IdnswRTWJlzScu2g-57" value="" style="edgeStyle=orthogonalEdgeStyle;rounded=0;orthogonalLoop=1;jettySize=auto;html=1;" edge="1" parent="1" source="7mI_IdnswRTWJlzScu2g-48" target="7mI_IdnswRTWJlzScu2g-47">
          <mxGeometry relative="1" as="geometry" />
        </mxCell>
        <mxCell id="7mI_IdnswRTWJlzScu2g-48" value="manage class details" style="rounded=0;whiteSpace=wrap;html=1;" vertex="1" parent="1">
          <mxGeometry x="530" y="390" width="120" height="30" as="geometry" />
        </mxCell>
        <mxCell id="7mI_IdnswRTWJlzScu2g-49" value="manage teacher profiles" style="rounded=0;whiteSpace=wrap;html=1;" vertex="1" parent="1">
          <mxGeometry x="530" y="330" width="120" height="30" as="geometry" />
        </mxCell>
        <mxCell id="7mI_IdnswRTWJlzScu2g-53" value="manage system admin" style="rounded=0;whiteSpace=wrap;html=1;" vertex="1" parent="1">
          <mxGeometry x="50" y="540" width="120" height="60" as="geometry" />
        </mxCell>
        <mxCell id="7mI_IdnswRTWJlzScu2g-54" value="manage roles of user" style="rounded=0;whiteSpace=wrap;html=1;" vertex="1" parent="1">
          <mxGeometry x="200" y="540" width="120" height="60" as="geometry" />
        </mxCell>
        <mxCell id="7mI_IdnswRTWJlzScu2g-55" value="manage user permission" style="rounded=0;whiteSpace=wrap;html=1;" vertex="1" parent="1">
          <mxGeometry x="350" y="540" width="120" height="60" as="geometry" />
        </mxCell>
      </root>
    </mxGraphModel>
  </diagram>
</mxfile>
